<svg xmlns="http://www.w3.org/2000/svg" viewBox="0 0 175 150.417" enable-background="new 0 0 175 150.417"><g opacity=".41"><radialGradient id="a" cx="87.472" cy="123.833" r="78.692" gradientTransform="matrix(1 0 0 .212 0 97.606)" gradientUnits="userSpaceOnUse"><stop offset="0" stop-color="#9C9C9C"/><stop offset="1" stop-color="#fff"/></radialGradient><ellipse fill="url(#a)" cx="87.472" cy="123.833" rx="80.667" ry="17.333"/></g><g><path fill="#771213" d="M88.906 61.195c5.64 7.928 7.5 15.482 5.585 22.457-2.634 9.458-11.611 15.886-18.677 19.621-.191.083-.418.043-.528-.111-.133-.15-.115-.358.042-.499 2.695-2.391 4.015-5.045 3.943-7.867-.105-4.01-2.994-7.585-5.673-9.589-2.95-2.22-3.353-7.294-3.37-9.357-6 5.623-1.344 12.804-1.143 13.127.109.146.078.346-.071.468-.148.13-.362.153-.531.056-.198-.129-5.185-3.235-4.679-8.975 2.213-13.555-6.738-17.565-10.027-18.552 8.413 11.136-2.954 23.751-3.079 23.877-.103.122-.29.167-.448.124-.173-.059-.28-.196-.276-.355.096-5.476-4.899-7.607-7.353-8.329 1.22 1.729 2.837 5.994.18 15.392-2.601 10.823 4.427 14.536 10.788 15.746.204.044.342.221.31.413-.019.198-.197.353-.404.356-3.237.059-6.169-.034-9.283-.295-12.219-1.545-20.281-5.902-23.949-12.922-4.373-8.404-1.321-18.98 2.632-25.477 4.571-7.534-1.409-20.751-1.468-20.879-.075-.152-.047-.306.078-.432.105-.113.283-.147.431-.092 9.757 2.992 13.235 9.864 14.431 15.109.816 3.577.708 6.84.522 8.803 1.736-3.124 4.703-10.255.979-17.626-9.304-15.402-6.842-27.005-3.123-34.003 4.017-7.595 10.155-11.484 10.412-11.644.145-.084.341-.084.476.019.143.084.198.249.148.407-8.644 25.182 16.339 40.359 21.627 43.231-4.802-13.676 10.577-23.22 10.741-23.325.167-.088.378-.073.527.047.129.133.147.342.036.484-.065.086-6.295 9.172 10.194 30.592z"/></g><g><path fill="#fff" d="M148.594 31.287l9.337 24.187-27.186 10.494 19.159 21.958-19.535 17.045-14.958-17.144-5.463 22.088-25.17-6.226 5.464-22.088-21.225 8.195-9.338-24.186 27.187-10.495-19.16-21.957 19.536-17.046 14.957 17.144 5.463-22.087 25.17 6.226-5.463 22.087z"/><path fill="none" stroke="#771213" stroke-miterlimit="10" d="M84.778 103.689l5.464-22.088-21.225 8.195-9.338-24.186 27.187-10.495-19.16-21.957 19.536-17.046 14.957 17.144 5.463-22.087 25.17 6.226-5.463 22.087 21.225-8.195 9.337 24.187-27.186 10.494 19.159 21.958-19.535 17.045-14.958-17.144-5.463 22.088z"/></g><g><g fill="#771213"><path d="M102.959 88.187c-1.66-.157-3.049-.549-3.049-.549l.473-.014-.047-.012 2.816-.238.943-3.995c-1.887-1.481-4.212-3.311-3.599-5.506.513-1.842 3.089-2.484 5.623-3.062l4.471-18.949c-1.016.278-1.937.613-2.666 1.106-.729.494-1.264 1.146-1.509 2.059-.517 1.92.656 3.453 2.269 4.913l-.944 4c-2.811-2.211-5.945-5.215-4.583-10.372 1.33-5.037 5.171-5.85 8.526-6.333l1.761-7.455 1.016-4.303-1.016 4.303c-3.143-2.267-6.847-4.947-5.611-9.591 1.405-5.281 5.988-5.348 8.999-4.761l.973-4.133.019.005.035-.221c.191-.773.974-1.245 1.749-1.054.774.191 1.245.974 1.054 1.747l-.071.212.018.004-1.079 4.173c.47-.218 1.631-.672 2.654-.393.199.054.45.158.734.298l.404.209c1.604.867 3.838 2.479 3.841 2.62.002.182-.063 1.421-1.13 1.951-1.069.53-1.9.127-2.918-.125-1.016-.251-3.12-.868-3.622-1.352l-.106-.108-.64-.073-2.025 7.831-.002-.001-.425 1.652.427-1.65c2.655 2.139 5.119 4.795 4.188 8.56-.986 3.988-4.528 4.94-7.878 5.702l-2.616 10.12c2.502 2.047 5.045 4.154 4.074 7.208-1.073 3.373-4.427 4.31-7.194 4.846l-1.155 4.475c1.396 1.094 2.686 2.403 2.229 4.179-.414 1.609-2.103 2.132-3.864 2.14l-1.299 5.021-.001.002-.004.006c-.191.773-.604.811-.904.737-.322-.08-.651-.301-.46-1.074l.002-.009 1.119-4.746zm20.371-56.117c.052-.211-.318-.483-.827-.609-.507-.125-.963-.058-1.016.153-.052.209.321.478.828.604.51.126.964.061 1.015-.148zm-6.067 16.684c.346-1.231-.43-2.285-1.68-3.349l-1.408 5.449c.771-.153 1.452-.355 1.986-.681.533-.325.92-.774 1.102-1.419zm-6.946 24.764c.601-.346 1.02-.778 1.155-1.352.229-.971-.715-1.874-2.054-2.927l-1.319 5.103c.852-.225 1.624-.482 2.218-.824zm-5.49 13.476c.766-.254 1.347-.605 1.457-1.095.092-.408-.253-.871-.815-1.388l-.642 2.483zm-.134-6.152l.717-3.036c-1.187.235-2.033.495-2.148 1.058-.137.657.529 1.29 1.431 1.978zm9.803-41.524l1.472-6.235c-2.035.079-4.238.582-4.562 2.371-.226 1.256 1.237 2.463 3.09 3.864zM116.72 41.02l-.427 1.65.425-1.652zM103.204 93.271l-.004.008.004-.006v-.002zM103.203 93.273l-.004.006.004-.006zM114.459 39.478l-1.016 4.303z"/></g></g></svg>