<?xml version="1.0" encoding="utf-8"?>
<!-- Generator: Adobe Illustrator 17.1.0, SVG Export Plug-In . SVG Version: 6.00 Build 0)  -->
<!DOCTYPE svg PUBLIC "-//W3C//DTD SVG 1.1//EN" "http://www.w3.org/Graphics/SVG/1.1/DTD/svg11.dtd">
<svg version="1.1" id="Layer_1" xmlns="http://www.w3.org/2000/svg" xmlns:xlink="http://www.w3.org/1999/xlink" x="0px" y="0px"
	 viewBox="-480 -205 1189 510" enable-background="new -480 -205 1189 510" xml:space="preserve">
<g>
	<polygon fill="#F0E5E1" points="-288.8,-0.1 -251.1,-0.1 -251.3,77.5 -288.6,77.5 	"/>
	<rect x="-302.8" y="79.3" fill="#F0E5E1" width="65.3" height="4.5"/>
	<polygon fill="#F0E5E1" points="-295.7,54.4 -245.5,54.4 -237.5,78.7 -302.8,78.7 	"/>
	<rect x="-296.4" y="-4.2" fill="#F0E5E1" width="52.1" height="3.9"/>
	<polygon fill="#F0E5E1" points="-244.2,-0.3 -296.4,-0.3 -293.1,6.8 -247.1,6.5 	"/>
	<linearGradient id="SVGID_1_" gradientUnits="userSpaceOnUse" x1="-269.1793" y1="89.9731" x2="-267.9096" y2="-12.2375">
		<stop  offset="0" style="stop-color:#FFFFFF"/>
		<stop  offset="1" style="stop-color:#FFFFFF;stop-opacity:0"/>
	</linearGradient>
	<rect x="-307.1" y="-3.7" fill="url(#SVGID_1_)" width="77" height="90.9"/>
</g>
<g>
	<rect x="-192.7" y="21.3" fill="#F0E5E1" width="159.7" height="112.2"/>
	<path fill="#771213" d="M-24.1,143.8v-10.4c0-0.4-0.3-0.7-0.7-0.7h-6.4c-0.4,0-0.7,0.3-0.7,0.7v0.9h-162.5v-0.9
		c0-0.4-0.3-0.7-0.7-0.7h-6.4c-0.4,0-0.7,0.3-0.7,0.7v10.4c0,0.4,0.3,0.7,0.7,0.7h6.4c0.4,0,0.7-0.3,0.7-0.7v-0.9H-32v0.9
		c0,0.4,0.3,0.7,0.7,0.7h6.4C-24.5,144.5-24.1,144.2-24.1,143.8z"/>
	<path fill="#F0E5E1" d="M-29.9,28.4v0.9h-58.7L-76.4-10c0.3-0.6,0.1-1.3-0.4-1.6l-2.5-1.5c-0.6-0.3-1.3-0.1-1.6,0.4l-13.7,42h-14.8
		V-3.6c0-0.7-0.5-1.2-1.2-1.2h-2.9c-0.7,0-1.2,0.5-1.2,1.2v32.9h-14.2l-12.4-44.8c-0.3-0.6-1.1-0.8-1.6-0.4l-2.5,1.5
		c-0.6,0.3-0.8,1.1-0.4,1.6l10.9,42.1h-58.7v-0.9h-3.4v4.2h3.4v-0.9h164v0.9h3.4v-4.2H-29.9z"/>
	<linearGradient id="SVGID_2_" gradientUnits="userSpaceOnUse" x1="-114.744" y1="157.2419" x2="-112.3144" y2="-38.3438">
		<stop  offset="0" style="stop-color:#FFFFFF"/>
		<stop  offset="0.8587" style="stop-color:#FFFFFF;stop-opacity:0.1413"/>
		<stop  offset="1" style="stop-color:#FFFFFF;stop-opacity:0"/>
	</linearGradient>
	<rect x="-215.7" y="-21.7" fill="url(#SVGID_2_)" width="204.2" height="173.3"/>
	<rect x="-192.7" y="-152.9" fill="#771213" width="159.7" height="112.2"/>
	<path fill="#771213" d="M-24.9-163.9h-6.4c-0.4,0-0.7,0.3-0.7,0.7v0.9h-162.5v-0.9c0-0.4-0.3-0.7-0.7-0.7h-6.4
		c-0.4,0-0.7,0.3-0.7,0.7v10.4c0,0.4,0.3,0.7,0.7,0.7h6.4c0.4,0,0.7-0.3,0.7-0.7v-0.9H-32v0.9c0,0.4,0.3,0.7,0.7,0.7h6.4
		c0.4,0,0.7-0.3,0.7-0.7v-10.4C-24.1-163.6-24.5-163.9-24.9-163.9z"/>
	<path fill="#771213" d="M-30.8-40.8v0.9h-164v-0.9h-3.4v4.2h3.4v-0.9h58.7l-10.2,21c-0.3,0.6-0.1,1.3,0.4,1.6l2.5,1.5
		c0.6,0.3,1.3,0.1,1.6-0.4l11.7-23.6h14.2v32.9c0,0.7,0.5,1.2,1.2,1.2h2.9c0.7,0,1.2-0.5,1.2-1.2v-32.9h14.8l14.2,23.9
		c0.3,0.6,1.1,0.8,1.6,0.4l2.5-1.5c0.6-0.3,0.8-1.1,0.4-1.6l-12.7-21.2h58.7v0.9h3.4v-4.2C-27.4-40.8-30.8-40.8-30.8-40.8z"/>
</g>
<g>
	<path fill="#771213" d="M-56.3,30.6c1.2-3.6,4.6-6.1,8.6-6.1h17.1V24c0-3.9-3.2-7-7-7h-22.5c-3.9,0-7,3.2-7,7v0.5h2.2
		C-61,24.5-57.6,27.1-56.3,30.6z"/>
	<path fill="#771213" d="M-100.5,30.6c1.2-3.6,4.6-6.1,8.6-6.1h22V24c0-3.9-3.2-7-7-7h-22.5c-3.9,0-7,3.2-7,7v0.9
		C-103.7,25.8-101.5,27.9-100.5,30.6z"/>
	<path fill="#771213" d="M-136.1,24.5h26.9V24c0-3.9-3.2-7-7-7h-22.5c-3.9,0-7,3.2-7,7v4.6c0.4,0.6,0.8,1.3,1,2
		C-143.5,27.1-140.1,24.5-136.1,24.5z"/>
	<path fill="#771213" d="M-277.4,30.6c1.2-3.6,4.6-6.1,8.6-6.1h2.2V24c0-3.9-3.2-7-7-7h-22.5c-3.9,0-7,3.2-7,7v0.5h17.1
		C-282,24.5-278.6,27.1-277.4,30.6z"/>
	<path fill="#771213" d="M-233.2,30.6c0.9-2.7,3.1-4.9,5.9-5.7V24c0-3.9-3.2-7-7-7h-22.5c-3.9,0-7,3.2-7,7v0.5h22
		C-237.8,24.5-234.4,27.1-233.2,30.6z"/>
	<path fill="#771213" d="M-153.4,24.5c1.7,0,3.4,0.5,4.8,1.3V24c0-3.9-3.2-7-7-7h-22.5c-3.9,0-7,3.2-7,7v1.8c1.4-0.9,3-1.3,4.8-1.3
		H-153.4z"/>
	<path fill="#771213" d="M-189,30.6c0.3-0.7,0.6-1.4,1-2V24c0-3.9-3.2-7-7-7h-22.5c-3.9,0-7,3.2-7,7v0.5h26.9
		C-193.6,24.5-190.2,27.1-189,30.6z"/>
	<path fill="#771213" d="M-149.7,39.6c1.2,0,2.3,0.2,3.4,0.6v-6.1c0-3.9-3.2-7-7-7h-27c-3.9,0-7,3.2-7,7v6.1
		c1.1-0.4,2.2-0.6,3.4-0.6H-149.7z"/>
	<path fill="#771213" d="M-143.2,34.1v8c1,0.9,1.8,1.9,2.3,3.1c1.6-3.3,5-5.7,8.9-5.7h29.8v-5.5c0-3.9-3.2-7-7-7h-27
		C-140,27.1-143.2,30.3-143.2,34.1z"/>
	<path fill="#771213" d="M-79.9,39.6h22v-5.5c0-3.9-3.2-7-7-7h-27c-3.9,0-7,3.2-7,7v5.5h1.2c3.9,0,7.3,2.3,8.9,5.7
		C-87.2,41.9-83.8,39.6-79.9,39.6z"/>
	<path fill="#771213" d="M-54.7,34.1v5.5h9.1c3.9,0,7.3,2.3,8.9,5.7c1.6-3.3,5-5.7,8.9-5.7h14.2v-5.5c0-3.9-3.2-7-7-7h-27
		C-51.6,27.1-54.7,30.3-54.7,34.1z"/>
	<path fill="#771213" d="M-296.9,45.3c1.6-3.3,5-5.7,8.9-5.7h9.1v-5.5c0-3.9-3.2-7-7-7h-27c-3.9,0-7,3.2-7,7v5.5h14.2
		C-301.9,39.6-298.5,41.9-296.9,45.3z"/>
	<path fill="#771213" d="M-231.6,34.1v5.5h29.8c3.9,0,7.3,2.3,8.9,5.7c0.6-1.2,1.3-2.3,2.3-3.1v-8c0-3.9-3.2-7-7-7h-27
		C-228.4,27.1-231.6,30.3-231.6,34.1z"/>
	<path fill="#771213" d="M-236,39.6h1.2v-5.5c0-3.9-3.2-7-7-7h-27c-3.9,0-7,3.2-7,7v5.5h22c3.9,0,7.3,2.3,8.9,5.7
		C-243.3,41.9-239.9,39.6-236,39.6z"/>
	<path fill="#771213" d="M-71.4,66.9c1.8-3.3,5.3-5.6,9.3-5.6h23.5V49.7c0-3.9-3.2-7-7-7h-34.2c-3.9,0-7,3.2-7,7v11.5h6.2
		C-76.7,61.2-73.2,63.5-71.4,66.9z"/>
	<path fill="#771213" d="M-90.7,61.2V49.7c0-3.9-3.2-7-7-7h-34.2c-3.9,0-7,3.2-7,7v13c1.7,1,3,2.4,3.9,4.1c1.8-3.3,5.3-5.6,9.3-5.6
		H-90.7z"/>
	<path fill="#771213" d="M-34.9,49.7v11.5h17.8c4,0,7.5,2.3,9.3,5.6c1.8-3.3,5.3-5.6,9.3-5.6h11.9V49.7c0-3.9-3.2-7-7-7h-34.2
		C-31.7,42.7-34.9,45.8-34.9,49.7z"/>
	<path fill="#771213" d="M-325.9,66.9c1.8-3.3,5.3-5.6,9.3-5.6h17.8V49.7c0-3.9-3.2-7-7-7h-34.2c-3.9,0-7,3.2-7,7v11.5h11.9
		C-331.2,61.2-327.7,63.5-325.9,66.9z"/>
	<path fill="#771213" d="M-262.3,66.9c1.8-3.3,5.3-5.6,9.3-5.6h6.2V49.7c0-3.9-3.2-7-7-7H-288c-3.9,0-7,3.2-7,7v11.5h23.5
		C-267.6,61.2-264.1,63.5-262.3,66.9z"/>
	<path fill="#771213" d="M-144.4,61.2c0.6,0,1.1,0,1.6,0.1V49.7c0-3.9-3.2-7-7-7H-184c-3.9,0-7,3.2-7,7v11.7
		c0.5-0.1,1.1-0.1,1.6-0.1H-144.4z"/>
	<path fill="#771213" d="M-194.7,62.7v-13c0-3.9-3.2-7-7-7H-236c-3.9,0-7,3.2-7,7v11.5h35c4,0,7.5,2.3,9.3,5.6
		C-197.8,65.1-196.4,63.7-194.7,62.7z"/>
	<path fill="#771213" d="M-380.2,121.3h45c3.9,0,7-3.1,7-7V71.7c0-3.8-3.2-7-7-7h-45c-3.9,0-7,3.1-7,7v42.6
		C-387.3,118.1-384.1,121.3-380.2,121.3z"/>
	<g>
		<g>
			<path fill="#771213" d="M-381.9,155.5c0,1.1-1,2.1-2.1,2.1h-0.4c-1.1,0-2.1-0.9-2.1-2.1l0.3-33.4c0-1.1,1-2.1,2.1-2.1h0.6
				c1.1,0,2.1,0.9,2,2.1L-381.9,155.5z"/>
		</g>
		<g>
			<path fill="#771213" d="M-371.7,136.7c0,1.1-1,2.1-2.1,2.1h-0.4c-1.1,0-2.1-0.9-2.1-2.1l0.3-33.4c0-1.1,1-2.1,2.1-2.1h0.6
				c1.1,0,2.1,0.9,2,2.1L-371.7,136.7z"/>
		</g>
		<g>
			<path fill="#771213" d="M-334.7,155.5c0,1.1,1,2.1,2.1,2.1h0.4c1.1,0,2.1-0.9,2.1-2.1l-0.3-33.4c0-1.1-1-2.1-2.1-2.1h-0.6
				c-1.1,0-2.1,0.9-2,2.1L-334.7,155.5z"/>
		</g>
		<g>
			<path fill="#771213" d="M-344.9,136.7c0,1.1,1,2.1,2.1,2.1h0.4c1.1,0,2.1-0.9,2.1-2.1l-0.3-33.4c0-1.1-1-2.1-2.1-2.1h-0.6
				c-1.1,0-2.1,0.9-2,2.1L-344.9,136.7z"/>
		</g>
	</g>
	<g>
		<linearGradient id="SVGID_3_" gradientUnits="userSpaceOnUse" x1="-46.1833" y1="94.422" x2="-49.2315" y2="296.6158">
			<stop  offset="0" style="stop-color:#F0E5E1"/>
			<stop  offset="0.3766" style="stop-color:#F4EBE8;stop-opacity:0.6234"/>
			<stop  offset="0.9315" style="stop-color:#FEFCFC;stop-opacity:6.851250e-02"/>
			<stop  offset="1" style="stop-color:#FFFFFF;stop-opacity:0"/>
		</linearGradient>
		<path fill="url(#SVGID_3_)" d="M-64.9,271.7h-2.2v0.5c0,3.9,3.2,7,7,7h22.5c3.9,0,7-3.2,7-7v-0.5h-17.1c-4,0-7.4-2.6-8.6-6.1
			C-57.6,269.2-61,271.7-64.9,271.7z"/>
		<linearGradient id="SVGID_4_" gradientUnits="userSpaceOnUse" x1="-85.5088" y1="93.8291" x2="-88.5569" y2="296.023">
			<stop  offset="0" style="stop-color:#F0E5E1"/>
			<stop  offset="0.3766" style="stop-color:#F4EBE8;stop-opacity:0.6234"/>
			<stop  offset="0.9315" style="stop-color:#FEFCFC;stop-opacity:6.851250e-02"/>
			<stop  offset="1" style="stop-color:#FFFFFF;stop-opacity:0"/>
		</linearGradient>
		<path fill="url(#SVGID_4_)" d="M-106.4,271.3v0.9c0,3.9,3.2,7,7,7H-77c3.9,0,7-3.2,7-7v-0.5h-22c-4,0-7.4-2.6-8.6-6.1
			C-101.5,268.3-103.7,270.5-106.4,271.3z"/>
		<linearGradient id="SVGID_5_" gradientUnits="userSpaceOnUse" x1="-124.8537" y1="93.236" x2="-127.9019" y2="295.4299">
			<stop  offset="0" style="stop-color:#F0E5E1"/>
			<stop  offset="0.3766" style="stop-color:#F4EBE8;stop-opacity:0.6234"/>
			<stop  offset="0.9315" style="stop-color:#FEFCFC;stop-opacity:6.851250e-02"/>
			<stop  offset="1" style="stop-color:#FFFFFF;stop-opacity:0"/>
		</linearGradient>
		<path fill="url(#SVGID_5_)" d="M-144.7,265.6c-0.3,0.7-0.6,1.4-1,2v4.6c0,3.9,3.2,7,7,7h22.5c3.9,0,7-3.2,7-7v-0.5h-26.9
			C-140.1,271.7-143.5,269.2-144.7,265.6z"/>
		<linearGradient id="SVGID_6_" gradientUnits="userSpaceOnUse" x1="-282.1145" y1="90.8652" x2="-285.1626" y2="293.0591">
			<stop  offset="0" style="stop-color:#F0E5E1"/>
			<stop  offset="0.3766" style="stop-color:#F4EBE8;stop-opacity:0.6234"/>
			<stop  offset="0.9315" style="stop-color:#FEFCFC;stop-opacity:6.851250e-02"/>
			<stop  offset="1" style="stop-color:#FFFFFF;stop-opacity:0"/>
		</linearGradient>
		<path fill="url(#SVGID_6_)" d="M-286,271.7h-17.1v0.5c0,3.9,3.2,7,7,7h22.5c3.9,0,7-3.2,7-7v-0.5h-2.2c-4,0-7.4-2.6-8.6-6.1
			C-278.6,269.2-282,271.7-286,271.7z"/>
		<linearGradient id="SVGID_7_" gradientUnits="userSpaceOnUse" x1="-242.7897" y1="91.458" x2="-245.8378" y2="293.6519">
			<stop  offset="0" style="stop-color:#F0E5E1"/>
			<stop  offset="0.3766" style="stop-color:#F4EBE8;stop-opacity:0.6234"/>
			<stop  offset="0.9315" style="stop-color:#FEFCFC;stop-opacity:6.851250e-02"/>
			<stop  offset="1" style="stop-color:#FFFFFF;stop-opacity:0"/>
		</linearGradient>
		<path fill="url(#SVGID_7_)" d="M-241.8,271.7h-22v0.5c0,3.9,3.2,7,7,7h22.5c3.9,0,7-3.2,7-7v-0.9c-2.8-0.9-5-3-5.9-5.7
			C-234.4,269.2-237.8,271.7-241.8,271.7z"/>
		<linearGradient id="SVGID_8_" gradientUnits="userSpaceOnUse" x1="-164.1579" y1="92.6434" x2="-167.2061" y2="294.8373">
			<stop  offset="0" style="stop-color:#F0E5E1"/>
			<stop  offset="0.3766" style="stop-color:#F4EBE8;stop-opacity:0.6234"/>
			<stop  offset="0.9315" style="stop-color:#FEFCFC;stop-opacity:6.851250e-02"/>
			<stop  offset="1" style="stop-color:#FFFFFF;stop-opacity:0"/>
		</linearGradient>
		<path fill="url(#SVGID_8_)" d="M-180.3,271.7c-1.7,0-3.4-0.5-4.8-1.3v1.8c0,3.9,3.2,7,7,7h22.5c3.9,0,7-3.2,7-7v-1.8
			c-1.4,0.9-3,1.3-4.8,1.3H-180.3z"/>
		<linearGradient id="SVGID_9_" gradientUnits="userSpaceOnUse" x1="-203.4725" y1="92.0508" x2="-206.5207" y2="294.2447">
			<stop  offset="0" style="stop-color:#F0E5E1"/>
			<stop  offset="0.3766" style="stop-color:#F4EBE8;stop-opacity:0.6234"/>
			<stop  offset="0.9315" style="stop-color:#FEFCFC;stop-opacity:6.851250e-02"/>
			<stop  offset="1" style="stop-color:#FFFFFF;stop-opacity:0"/>
		</linearGradient>
		<path fill="url(#SVGID_9_)" d="M-197.6,271.7h-26.9v0.5c0,3.9,3.2,7,7,7h22.5c3.9,0,7-3.2,7-7v-4.6c-0.4-0.6-0.8-1.3-1-2
			C-190.2,269.2-193.6,271.7-197.6,271.7z"/>
		<linearGradient id="SVGID_10_" gradientUnits="userSpaceOnUse" x1="-164.3422" y1="92.6407" x2="-167.3904" y2="294.8346">
			<stop  offset="0" style="stop-color:#F0E5E1"/>
			<stop  offset="0.3766" style="stop-color:#F4EBE8;stop-opacity:0.6234"/>
			<stop  offset="0.9315" style="stop-color:#FEFCFC;stop-opacity:6.851250e-02"/>
			<stop  offset="1" style="stop-color:#FFFFFF;stop-opacity:0"/>
		</linearGradient>
		<path fill="url(#SVGID_10_)" d="M-184,256.6c-1.2,0-2.3-0.2-3.4-0.6v6.1c0,3.9,3.2,7,7,7h27c3.9,0,7-3.2,7-7V256
			c-1.1,0.4-2.2,0.6-3.4,0.6H-184z"/>
		<linearGradient id="SVGID_11_" gradientUnits="userSpaceOnUse" x1="-120.1582" y1="93.3068" x2="-123.2064" y2="295.5006">
			<stop  offset="0" style="stop-color:#F0E5E1"/>
			<stop  offset="0.3766" style="stop-color:#F4EBE8;stop-opacity:0.6234"/>
			<stop  offset="0.9315" style="stop-color:#FEFCFC;stop-opacity:6.851250e-02"/>
			<stop  offset="1" style="stop-color:#FFFFFF;stop-opacity:0"/>
		</linearGradient>
		<path fill="url(#SVGID_11_)" d="M-136.1,269.1h27c3.9,0,7-3.2,7-7v-5.5h-29.8c-3.9,0-7.3-2.3-8.9-5.7c-0.6,1.2-1.4,2.3-2.3,3.1v8
			C-143.2,266-140,269.1-136.1,269.1z"/>
		<linearGradient id="SVGID_12_" gradientUnits="userSpaceOnUse" x1="-75.9405" y1="93.9734" x2="-78.9886" y2="296.1672">
			<stop  offset="0" style="stop-color:#F0E5E1"/>
			<stop  offset="0.3766" style="stop-color:#F4EBE8;stop-opacity:0.6234"/>
			<stop  offset="0.9315" style="stop-color:#FEFCFC;stop-opacity:6.851250e-02"/>
			<stop  offset="1" style="stop-color:#FFFFFF;stop-opacity:0"/>
		</linearGradient>
		<path fill="url(#SVGID_12_)" d="M-88.8,250.9c-1.6,3.3-5,5.7-8.9,5.7h-1.2v5.5c0,3.9,3.2,7,7,7h27c3.9,0,7-3.2,7-7v-5.5h-22
			C-83.8,256.6-87.2,254.3-88.8,250.9z"/>
		<linearGradient id="SVGID_13_" gradientUnits="userSpaceOnUse" x1="-31.7444" y1="94.6396" x2="-34.7926" y2="296.8335">
			<stop  offset="0" style="stop-color:#F0E5E1"/>
			<stop  offset="0.3766" style="stop-color:#F4EBE8;stop-opacity:0.6234"/>
			<stop  offset="0.9315" style="stop-color:#FEFCFC;stop-opacity:6.851250e-02"/>
			<stop  offset="1" style="stop-color:#FFFFFF;stop-opacity:0"/>
		</linearGradient>
		<path fill="url(#SVGID_13_)" d="M-47.7,269.1h27c3.9,0,7-3.2,7-7v-5.5h-14.2c-3.9,0-7.3-2.3-8.9-5.7c-1.6,3.3-5,5.7-8.9,5.7h-9.1
			v5.5C-54.7,266-51.6,269.1-47.7,269.1z"/>
		<linearGradient id="SVGID_14_" gradientUnits="userSpaceOnUse" x1="-296.941" y1="90.6417" x2="-299.9891" y2="292.8356">
			<stop  offset="0" style="stop-color:#F0E5E1"/>
			<stop  offset="0.3766" style="stop-color:#F4EBE8;stop-opacity:0.6234"/>
			<stop  offset="0.9315" style="stop-color:#FEFCFC;stop-opacity:6.851250e-02"/>
			<stop  offset="1" style="stop-color:#FFFFFF;stop-opacity:0"/>
		</linearGradient>
		<path fill="url(#SVGID_14_)" d="M-305.8,256.6H-320v5.5c0,3.9,3.2,7,7,7h27c3.9,0,7-3.2,7-7v-5.5h-9.1c-3.9,0-7.3-2.3-8.9-5.7
			C-298.5,254.3-301.9,256.6-305.8,256.6z"/>
		<linearGradient id="SVGID_15_" gradientUnits="userSpaceOnUse" x1="-208.5388" y1="91.9744" x2="-211.5869" y2="294.1683">
			<stop  offset="0" style="stop-color:#F0E5E1"/>
			<stop  offset="0.3766" style="stop-color:#F4EBE8;stop-opacity:0.6234"/>
			<stop  offset="0.9315" style="stop-color:#FEFCFC;stop-opacity:6.851250e-02"/>
			<stop  offset="1" style="stop-color:#FFFFFF;stop-opacity:0"/>
		</linearGradient>
		<path fill="url(#SVGID_15_)" d="M-224.6,269.1h27c3.9,0,7-3.2,7-7v-8c-1-0.9-1.8-1.9-2.3-3.1c-1.6,3.3-5,5.7-8.9,5.7h-29.8v5.5
			C-231.6,266-228.4,269.1-224.6,269.1z"/>
		<linearGradient id="SVGID_16_" gradientUnits="userSpaceOnUse" x1="-252.7348" y1="91.3081" x2="-255.7829" y2="293.502">
			<stop  offset="0" style="stop-color:#F0E5E1"/>
			<stop  offset="0.3766" style="stop-color:#F4EBE8;stop-opacity:0.6234"/>
			<stop  offset="0.9315" style="stop-color:#FEFCFC;stop-opacity:6.851250e-02"/>
			<stop  offset="1" style="stop-color:#FFFFFF;stop-opacity:0"/>
		</linearGradient>
		<path fill="url(#SVGID_16_)" d="M-244.9,250.9c-1.6,3.3-5,5.7-8.9,5.7h-22v5.5c0,3.9,3.2,7,7,7h27c3.9,0,7-3.2,7-7v-5.5h-1.2
			C-239.9,256.6-243.3,254.3-244.9,250.9z"/>
		<linearGradient id="SVGID_17_" gradientUnits="userSpaceOnUse" x1="-60.5826" y1="94.2049" x2="-63.6307" y2="296.3988">
			<stop  offset="0" style="stop-color:#F0E5E1"/>
			<stop  offset="0.3766" style="stop-color:#F4EBE8;stop-opacity:0.6234"/>
			<stop  offset="0.9315" style="stop-color:#FEFCFC;stop-opacity:6.851250e-02"/>
			<stop  offset="1" style="stop-color:#FFFFFF;stop-opacity:0"/>
		</linearGradient>
		<path fill="url(#SVGID_17_)" d="M-80.7,235h-6.2v11.5c0,3.9,3.2,7,7,7h34.2c3.9,0,7-3.2,7-7V235h-23.5c-4,0-7.5-2.3-9.3-5.6
			C-73.2,232.7-76.7,235-80.7,235z"/>
		<linearGradient id="SVGID_18_" gradientUnits="userSpaceOnUse" x1="-112.6076" y1="93.4206" x2="-115.6558" y2="295.6145">
			<stop  offset="0" style="stop-color:#F0E5E1"/>
			<stop  offset="0.3766" style="stop-color:#F4EBE8;stop-opacity:0.6234"/>
			<stop  offset="0.9315" style="stop-color:#FEFCFC;stop-opacity:6.851250e-02"/>
			<stop  offset="1" style="stop-color:#FFFFFF;stop-opacity:0"/>
		</linearGradient>
		<path fill="url(#SVGID_18_)" d="M-125.7,235c-4,0-7.5-2.3-9.3-5.6c-0.9,1.7-2.3,3.2-3.9,4.1v13c0,3.9,3.2,7,7,7h34.2
			c3.9,0,7-3.2,7-7V235H-125.7z"/>
		<linearGradient id="SVGID_19_" gradientUnits="userSpaceOnUse" x1="-8.5585" y1="94.9892" x2="-11.6066" y2="297.183">
			<stop  offset="0" style="stop-color:#F0E5E1"/>
			<stop  offset="0.3766" style="stop-color:#F4EBE8;stop-opacity:0.6234"/>
			<stop  offset="0.9315" style="stop-color:#FEFCFC;stop-opacity:6.851250e-02"/>
			<stop  offset="1" style="stop-color:#FFFFFF;stop-opacity:0"/>
		</linearGradient>
		<path fill="url(#SVGID_19_)" d="M-27.9,253.6H6.4c3.9,0,7-3.2,7-7V235H1.5c-4,0-7.5-2.3-9.3-5.6c-1.8,3.3-5.3,5.6-9.3,5.6h-17.8
			v11.5C-34.9,250.4-31.7,253.6-27.9,253.6z"/>
		<linearGradient id="SVGID_20_" gradientUnits="userSpaceOnUse" x1="-320.6822" y1="90.2838" x2="-323.7303" y2="292.4777">
			<stop  offset="0" style="stop-color:#F0E5E1"/>
			<stop  offset="0.3766" style="stop-color:#F4EBE8;stop-opacity:0.6234"/>
			<stop  offset="0.9315" style="stop-color:#FEFCFC;stop-opacity:6.851250e-02"/>
			<stop  offset="1" style="stop-color:#FFFFFF;stop-opacity:0"/>
		</linearGradient>
		<path fill="url(#SVGID_20_)" d="M-335.2,235h-11.9v11.5c0,3.9,3.2,7,7,7h34.2c3.9,0,7-3.2,7-7V235h-17.8c-4,0-7.5-2.3-9.3-5.6
			C-327.7,232.7-331.2,235-335.2,235z"/>
		<linearGradient id="SVGID_21_" gradientUnits="userSpaceOnUse" x1="-268.6633" y1="91.068" x2="-271.7114" y2="293.2619">
			<stop  offset="0" style="stop-color:#F0E5E1"/>
			<stop  offset="0.3766" style="stop-color:#F4EBE8;stop-opacity:0.6234"/>
			<stop  offset="0.9315" style="stop-color:#FEFCFC;stop-opacity:6.851250e-02"/>
			<stop  offset="1" style="stop-color:#FFFFFF;stop-opacity:0"/>
		</linearGradient>
		<path fill="url(#SVGID_21_)" d="M-271.6,235h-23.5v11.5c0,3.9,3.2,7,7,7h34.2c3.9,0,7-3.2,7-7V235h-6.2c-4,0-7.5-2.3-9.3-5.6
			C-264.1,232.7-267.6,235-271.6,235z"/>
		<linearGradient id="SVGID_22_" gradientUnits="userSpaceOnUse" x1="-164.6213" y1="92.6365" x2="-167.6694" y2="294.8304">
			<stop  offset="0" style="stop-color:#F0E5E1"/>
			<stop  offset="0.3766" style="stop-color:#F4EBE8;stop-opacity:0.6234"/>
			<stop  offset="0.9315" style="stop-color:#FEFCFC;stop-opacity:6.851250e-02"/>
			<stop  offset="1" style="stop-color:#FFFFFF;stop-opacity:0"/>
		</linearGradient>
		<path fill="url(#SVGID_22_)" d="M-189.4,235c-0.6,0-1.1,0-1.6-0.1v11.7c0,3.9,3.2,7,7,7h34.2c3.9,0,7-3.2,7-7v-11.7
			c-0.5,0.1-1.1,0.1-1.6,0.1H-189.4z"/>
		<linearGradient id="SVGID_23_" gradientUnits="userSpaceOnUse" x1="-216.6367" y1="91.8523" x2="-219.6849" y2="294.0462">
			<stop  offset="0" style="stop-color:#F0E5E1"/>
			<stop  offset="0.3766" style="stop-color:#F4EBE8;stop-opacity:0.6234"/>
			<stop  offset="0.9315" style="stop-color:#FEFCFC;stop-opacity:6.851250e-02"/>
			<stop  offset="1" style="stop-color:#FFFFFF;stop-opacity:0"/>
		</linearGradient>
		<path fill="url(#SVGID_23_)" d="M-198.7,229.4c-1.8,3.3-5.3,5.6-9.3,5.6h-35v11.5c0,3.9,3.2,7,7,7h34.2c3.9,0,7-3.2,7-7v-13
			C-196.4,232.5-197.8,231.1-198.7,229.4z"/>
		<g>
			<g>
				<linearGradient id="SVGID_24_" gradientUnits="userSpaceOnUse" x1="-382.0613" y1="89.5025" x2="-385.1044" y2="291.363">
					<stop  offset="0" style="stop-color:#F0E5E1"/>
					<stop  offset="0.3766" style="stop-color:#F4EBE8;stop-opacity:0.6234"/>
					<stop  offset="0.9315" style="stop-color:#FEFCFC;stop-opacity:6.851250e-02"/>
					<stop  offset="1" style="stop-color:#FFFFFF;stop-opacity:0"/>
				</linearGradient>
				<path fill="url(#SVGID_24_)" d="M-381.2,193.4c0,1.1-1,2.1-2.1,2.1h-0.4c-1.1,0-2.1-0.9-2.1-2.1l0.3-33.4c0-1.1,1-2.1,2.1-2.1
					h0.6c1.1,0,2.1,0.9,2,2.1L-381.2,193.4z"/>
			</g>
			<g>
				<linearGradient id="SVGID_25_" gradientUnits="userSpaceOnUse" x1="-372.2038" y1="89.6179" x2="-375.2469" y2="291.4785">
					<stop  offset="0" style="stop-color:#F0E5E1"/>
					<stop  offset="0.3766" style="stop-color:#F4EBE8;stop-opacity:0.6234"/>
					<stop  offset="0.9315" style="stop-color:#FEFCFC;stop-opacity:6.851250e-02"/>
					<stop  offset="1" style="stop-color:#FFFFFF;stop-opacity:0"/>
				</linearGradient>
				<path fill="url(#SVGID_25_)" d="M-371.1,173.5c0,1.1-1,2.1-2.1,2.1h-0.4c-1.1,0-2.1-0.9-2.1-2.1l0.3-33.4c0-1.1,1-2.1,2.1-2.1
					h0.6c1.1,0,2.1,0.9,2,2.1L-371.1,173.5z"/>
			</g>
			<g>
				<linearGradient id="SVGID_26_" gradientUnits="userSpaceOnUse" x1="-330.6673" y1="90.2761" x2="-333.7104" y2="292.1365">
					<stop  offset="0" style="stop-color:#F0E5E1"/>
					<stop  offset="0.3766" style="stop-color:#F4EBE8;stop-opacity:0.6234"/>
					<stop  offset="0.9315" style="stop-color:#FEFCFC;stop-opacity:6.851250e-02"/>
					<stop  offset="1" style="stop-color:#FFFFFF;stop-opacity:0"/>
				</linearGradient>
				<path fill="url(#SVGID_26_)" d="M-334,193.4c0,1.1,1,2.1,2.1,2.1h0.4c1.1,0,2.1-0.9,2.1-2.1l-0.3-33.4c0-1.1-1-2.1-2.1-2.1h-0.6
					c-1.1,0-2.1,0.9-2,2.1L-334,193.4z"/>
			</g>
			<g>
				<linearGradient id="SVGID_27_" gradientUnits="userSpaceOnUse" x1="-341.1262" y1="90.0857" x2="-344.1693" y2="291.9461">
					<stop  offset="0" style="stop-color:#F0E5E1"/>
					<stop  offset="0.3766" style="stop-color:#F4EBE8;stop-opacity:0.6234"/>
					<stop  offset="0.9315" style="stop-color:#FEFCFC;stop-opacity:6.851250e-02"/>
					<stop  offset="1" style="stop-color:#FFFFFF;stop-opacity:0"/>
				</linearGradient>
				<path fill="url(#SVGID_27_)" d="M-344.2,173.5c0,1.1,1,2.1,2.1,2.1h0.4c1.1,0,2.1-0.9,2.1-2.1l-0.3-33.4c0-1.1-1-2.1-2.1-2.1
					h-0.6c-1.1,0-2.1,0.9-2,2.1L-344.2,173.5z"/>
			</g>
			<linearGradient id="SVGID_28_" gradientUnits="userSpaceOnUse" x1="-356.0597" y1="89.7505" x2="-359.1079" y2="291.9443">
				<stop  offset="0" style="stop-color:#F0E5E1"/>
				<stop  offset="0.3766" style="stop-color:#F4EBE8;stop-opacity:0.6234"/>
				<stop  offset="0.9315" style="stop-color:#FEFCFC;stop-opacity:6.851250e-02"/>
				<stop  offset="1" style="stop-color:#FFFFFF;stop-opacity:0"/>
			</linearGradient>
			<path fill="url(#SVGID_28_)" d="M-380.2,229h45c3.9,0,7-3.1,7-7v-42.6c0-3.8-3.2-7-7-7h-45c-3.9,0-7,3.1-7,7V222
				C-387.3,225.8-384.1,229-380.2,229z"/>
		</g>
		<g>
			<g>
				<linearGradient id="SVGID_29_" gradientUnits="userSpaceOnUse" x1="-319.0805" y1="90.4504" x2="-322.1236" y2="292.3109">
					<stop  offset="0" style="stop-color:#F0E5E1"/>
					<stop  offset="0.3766" style="stop-color:#F4EBE8;stop-opacity:0.6234"/>
					<stop  offset="0.9315" style="stop-color:#FEFCFC;stop-opacity:6.851250e-02"/>
					<stop  offset="1" style="stop-color:#FFFFFF;stop-opacity:0"/>
				</linearGradient>
				<path fill="url(#SVGID_29_)" d="M-318.2,193.4c0,1.1-1,2.1-2.1,2.1h-0.4c-1.1,0-2.1-0.9-2.1-2.1l0.3-33.4c0-1.1,1-2.1,2.1-2.1
					h0.6c1.1,0,2.1,0.9,2,2.1L-318.2,193.4z"/>
			</g>
			<g>
				<linearGradient id="SVGID_30_" gradientUnits="userSpaceOnUse" x1="-309.223" y1="90.5658" x2="-312.2661" y2="292.4264">
					<stop  offset="0" style="stop-color:#F0E5E1"/>
					<stop  offset="0.3766" style="stop-color:#F4EBE8;stop-opacity:0.6234"/>
					<stop  offset="0.9315" style="stop-color:#FEFCFC;stop-opacity:6.851250e-02"/>
					<stop  offset="1" style="stop-color:#FFFFFF;stop-opacity:0"/>
				</linearGradient>
				<path fill="url(#SVGID_30_)" d="M-308.1,173.5c0,1.1-1,2.1-2.1,2.1h-0.4c-1.1,0-2.1-0.9-2.1-2.1l0.3-33.4c0-1.1,1-2.1,2.1-2.1
					h0.6c1.1,0,2.1,0.9,2,2.1L-308.1,173.5z"/>
			</g>
			<g>
				<linearGradient id="SVGID_31_" gradientUnits="userSpaceOnUse" x1="-267.6865" y1="91.224" x2="-270.7296" y2="293.0844">
					<stop  offset="0" style="stop-color:#F0E5E1"/>
					<stop  offset="0.3766" style="stop-color:#F4EBE8;stop-opacity:0.6234"/>
					<stop  offset="0.9315" style="stop-color:#FEFCFC;stop-opacity:6.851250e-02"/>
					<stop  offset="1" style="stop-color:#FFFFFF;stop-opacity:0"/>
				</linearGradient>
				<path fill="url(#SVGID_31_)" d="M-271,193.4c0,1.1,1,2.1,2.1,2.1h0.4c1.1,0,2.1-0.9,2.1-2.1l-0.3-33.4c0-1.1-1-2.1-2.1-2.1h-0.6
					c-1.1,0-2.1,0.9-2,2.1L-271,193.4z"/>
			</g>
			<g>
				<linearGradient id="SVGID_32_" gradientUnits="userSpaceOnUse" x1="-278.1454" y1="91.0336" x2="-281.1885" y2="292.894">
					<stop  offset="0" style="stop-color:#F0E5E1"/>
					<stop  offset="0.3766" style="stop-color:#F4EBE8;stop-opacity:0.6234"/>
					<stop  offset="0.9315" style="stop-color:#FEFCFC;stop-opacity:6.851250e-02"/>
					<stop  offset="1" style="stop-color:#FFFFFF;stop-opacity:0"/>
				</linearGradient>
				<path fill="url(#SVGID_32_)" d="M-281.2,173.5c0,1.1,1,2.1,2.1,2.1h0.4c1.1,0,2.1-0.9,2.1-2.1l-0.3-33.4c0-1.1-1-2.1-2.1-2.1
					h-0.6c-1.1,0-2.1,0.9-2,2.1L-281.2,173.5z"/>
			</g>
			<linearGradient id="SVGID_33_" gradientUnits="userSpaceOnUse" x1="-293.0789" y1="90.6999" x2="-296.1271" y2="292.8938">
				<stop  offset="0" style="stop-color:#F0E5E1"/>
				<stop  offset="0.3766" style="stop-color:#F4EBE8;stop-opacity:0.6234"/>
				<stop  offset="0.9315" style="stop-color:#FEFCFC;stop-opacity:6.851250e-02"/>
				<stop  offset="1" style="stop-color:#FFFFFF;stop-opacity:0"/>
			</linearGradient>
			<path fill="url(#SVGID_33_)" d="M-317.2,229h45c3.9,0,7-3.1,7-7v-42.6c0-3.8-3.2-7-7-7h-45c-3.9,0-7,3.1-7,7V222
				C-324.3,225.8-321.1,229-317.2,229z"/>
		</g>
		<g>
			<g>
				<linearGradient id="SVGID_34_" gradientUnits="userSpaceOnUse" x1="-255.0839" y1="91.4136" x2="-258.127" y2="293.2741">
					<stop  offset="0" style="stop-color:#F0E5E1"/>
					<stop  offset="0.3766" style="stop-color:#F4EBE8;stop-opacity:0.6234"/>
					<stop  offset="0.9315" style="stop-color:#FEFCFC;stop-opacity:6.851250e-02"/>
					<stop  offset="1" style="stop-color:#FFFFFF;stop-opacity:0"/>
				</linearGradient>
				<path fill="url(#SVGID_34_)" d="M-254.2,193.4c0,1.1-1,2.1-2.1,2.1h-0.4c-1.1,0-2.1-0.9-2.1-2.1l0.3-33.4c0-1.1,1-2.1,2.1-2.1
					h0.6c1.1,0,2.1,0.9,2,2.1L-254.2,193.4z"/>
			</g>
			<g>
				<linearGradient id="SVGID_35_" gradientUnits="userSpaceOnUse" x1="-245.2264" y1="91.529" x2="-248.2695" y2="293.3895">
					<stop  offset="0" style="stop-color:#F0E5E1"/>
					<stop  offset="0.3766" style="stop-color:#F4EBE8;stop-opacity:0.6234"/>
					<stop  offset="0.9315" style="stop-color:#FEFCFC;stop-opacity:6.851250e-02"/>
					<stop  offset="1" style="stop-color:#FFFFFF;stop-opacity:0"/>
				</linearGradient>
				<path fill="url(#SVGID_35_)" d="M-244.1,173.5c0,1.1-1,2.1-2.1,2.1h-0.4c-1.1,0-2.1-0.9-2.1-2.1l0.3-33.4c0-1.1,1-2.1,2.1-2.1
					h0.6c1.1,0,2.1,0.9,2,2.1L-244.1,173.5z"/>
			</g>
			<g>
				<linearGradient id="SVGID_36_" gradientUnits="userSpaceOnUse" x1="-203.6899" y1="92.1872" x2="-206.733" y2="294.0476">
					<stop  offset="0" style="stop-color:#F0E5E1"/>
					<stop  offset="0.3766" style="stop-color:#F4EBE8;stop-opacity:0.6234"/>
					<stop  offset="0.9315" style="stop-color:#FEFCFC;stop-opacity:6.851250e-02"/>
					<stop  offset="1" style="stop-color:#FFFFFF;stop-opacity:0"/>
				</linearGradient>
				<path fill="url(#SVGID_36_)" d="M-207,193.4c0,1.1,1,2.1,2.1,2.1h0.4c1.1,0,2.1-0.9,2.1-2.1l-0.3-33.4c0-1.1-1-2.1-2.1-2.1h-0.6
					c-1.1,0-2.1,0.9-2,2.1L-207,193.4z"/>
			</g>
			<g>
				<linearGradient id="SVGID_37_" gradientUnits="userSpaceOnUse" x1="-214.1488" y1="91.9968" x2="-217.1919" y2="293.8572">
					<stop  offset="0" style="stop-color:#F0E5E1"/>
					<stop  offset="0.3766" style="stop-color:#F4EBE8;stop-opacity:0.6234"/>
					<stop  offset="0.9315" style="stop-color:#FEFCFC;stop-opacity:6.851250e-02"/>
					<stop  offset="1" style="stop-color:#FFFFFF;stop-opacity:0"/>
				</linearGradient>
				<path fill="url(#SVGID_37_)" d="M-217.2,173.5c0,1.1,1,2.1,2.1,2.1h0.4c1.1,0,2.1-0.9,2.1-2.1l-0.3-33.4c0-1.1-1-2.1-2.1-2.1
					h-0.6c-1.1,0-2.1,0.9-2,2.1L-217.2,173.5z"/>
			</g>
			<linearGradient id="SVGID_38_" gradientUnits="userSpaceOnUse" x1="-229.0824" y1="91.6647" x2="-232.1305" y2="293.8586">
				<stop  offset="0" style="stop-color:#F0E5E1"/>
				<stop  offset="0.3766" style="stop-color:#F4EBE8;stop-opacity:0.6234"/>
				<stop  offset="0.9315" style="stop-color:#FEFCFC;stop-opacity:6.851250e-02"/>
				<stop  offset="1" style="stop-color:#FFFFFF;stop-opacity:0"/>
			</linearGradient>
			<path fill="url(#SVGID_38_)" d="M-253.2,229h45c3.9,0,7-3.1,7-7v-42.6c0-3.8-3.2-7-7-7h-45c-3.9,0-7,3.1-7,7V222
				C-260.2,225.8-257.1,229-253.2,229z"/>
		</g>
		<g>
			<g>
				<linearGradient id="SVGID_39_" gradientUnits="userSpaceOnUse" x1="-191.0873" y1="92.3768" x2="-194.1304" y2="294.2373">
					<stop  offset="0" style="stop-color:#F0E5E1"/>
					<stop  offset="0.3766" style="stop-color:#F4EBE8;stop-opacity:0.6234"/>
					<stop  offset="0.9315" style="stop-color:#FEFCFC;stop-opacity:6.851250e-02"/>
					<stop  offset="1" style="stop-color:#FFFFFF;stop-opacity:0"/>
				</linearGradient>
				<path fill="url(#SVGID_39_)" d="M-190.2,193.4c0,1.1-1,2.1-2.1,2.1h-0.4c-1.1,0-2.1-0.9-2.1-2.1l0.3-33.4c0-1.1,1-2.1,2.1-2.1
					h0.6c1.1,0,2.1,0.9,2,2.1L-190.2,193.4z"/>
			</g>
			<g>
				<linearGradient id="SVGID_40_" gradientUnits="userSpaceOnUse" x1="-181.2298" y1="92.4922" x2="-184.2729" y2="294.3527">
					<stop  offset="0" style="stop-color:#F0E5E1"/>
					<stop  offset="0.3766" style="stop-color:#F4EBE8;stop-opacity:0.6234"/>
					<stop  offset="0.9315" style="stop-color:#FEFCFC;stop-opacity:6.851250e-02"/>
					<stop  offset="1" style="stop-color:#FFFFFF;stop-opacity:0"/>
				</linearGradient>
				<path fill="url(#SVGID_40_)" d="M-180,173.5c0,1.1-1,2.1-2.1,2.1h-0.4c-1.1,0-2.1-0.9-2.1-2.1l0.3-33.4c0-1.1,1-2.1,2.1-2.1h0.6
					c1.1,0,2.1,0.9,2,2.1L-180,173.5z"/>
			</g>
			<g>
				<linearGradient id="SVGID_41_" gradientUnits="userSpaceOnUse" x1="-139.6933" y1="93.1503" x2="-142.7364" y2="295.0107">
					<stop  offset="0" style="stop-color:#F0E5E1"/>
					<stop  offset="0.3766" style="stop-color:#F4EBE8;stop-opacity:0.6234"/>
					<stop  offset="0.9315" style="stop-color:#FEFCFC;stop-opacity:6.851250e-02"/>
					<stop  offset="1" style="stop-color:#FFFFFF;stop-opacity:0"/>
				</linearGradient>
				<path fill="url(#SVGID_41_)" d="M-143,193.4c0,1.1,1,2.1,2.1,2.1h0.4c1.1,0,2.1-0.9,2.1-2.1l-0.3-33.4c0-1.1-1-2.1-2.1-2.1h-0.6
					c-1.1,0-2.1,0.9-2,2.1L-143,193.4z"/>
			</g>
			<g>
				<linearGradient id="SVGID_42_" gradientUnits="userSpaceOnUse" x1="-150.1522" y1="92.96" x2="-153.1953" y2="294.8204">
					<stop  offset="0" style="stop-color:#F0E5E1"/>
					<stop  offset="0.3766" style="stop-color:#F4EBE8;stop-opacity:0.6234"/>
					<stop  offset="0.9315" style="stop-color:#FEFCFC;stop-opacity:6.851250e-02"/>
					<stop  offset="1" style="stop-color:#FFFFFF;stop-opacity:0"/>
				</linearGradient>
				<path fill="url(#SVGID_42_)" d="M-153.2,173.5c0,1.1,1,2.1,2.1,2.1h0.4c1.1,0,2.1-0.9,2.1-2.1l-0.3-33.4c0-1.1-1-2.1-2.1-2.1
					h-0.6c-1.1,0-2.1,0.9-2,2.1L-153.2,173.5z"/>
			</g>
			<linearGradient id="SVGID_43_" gradientUnits="userSpaceOnUse" x1="-165.0858" y1="92.6295" x2="-168.1339" y2="294.8233">
				<stop  offset="0" style="stop-color:#F0E5E1"/>
				<stop  offset="0.3766" style="stop-color:#F4EBE8;stop-opacity:0.6234"/>
				<stop  offset="0.9315" style="stop-color:#FEFCFC;stop-opacity:6.851250e-02"/>
				<stop  offset="1" style="stop-color:#FFFFFF;stop-opacity:0"/>
			</linearGradient>
			<path fill="url(#SVGID_43_)" d="M-189.2,229h45c3.9,0,7-3.1,7-7v-42.6c0-3.8-3.2-7-7-7h-45c-3.9,0-7,3.1-7,7V222
				C-196.2,225.8-193.1,229-189.2,229z"/>
		</g>
		<g>
			<g>
				<linearGradient id="SVGID_44_" gradientUnits="userSpaceOnUse" x1="-127.0907" y1="93.34" x2="-130.1338" y2="295.2005">
					<stop  offset="0" style="stop-color:#F0E5E1"/>
					<stop  offset="0.3766" style="stop-color:#F4EBE8;stop-opacity:0.6234"/>
					<stop  offset="0.9315" style="stop-color:#FEFCFC;stop-opacity:6.851250e-02"/>
					<stop  offset="1" style="stop-color:#FFFFFF;stop-opacity:0"/>
				</linearGradient>
				<path fill="url(#SVGID_44_)" d="M-126.2,193.4c0,1.1-1,2.1-2.1,2.1h-0.4c-1.1,0-2.1-0.9-2.1-2.1l0.3-33.4c0-1.1,1-2.1,2.1-2.1
					h0.6c1.1,0,2.1,0.9,2,2.1L-126.2,193.4z"/>
			</g>
			<g>
				<linearGradient id="SVGID_45_" gradientUnits="userSpaceOnUse" x1="-117.2332" y1="93.4554" x2="-120.2763" y2="295.3159">
					<stop  offset="0" style="stop-color:#F0E5E1"/>
					<stop  offset="0.3766" style="stop-color:#F4EBE8;stop-opacity:0.6234"/>
					<stop  offset="0.9315" style="stop-color:#FEFCFC;stop-opacity:6.851250e-02"/>
					<stop  offset="1" style="stop-color:#FFFFFF;stop-opacity:0"/>
				</linearGradient>
				<path fill="url(#SVGID_45_)" d="M-116,173.5c0,1.1-1,2.1-2.1,2.1h-0.4c-1.1,0-2.1-0.9-2.1-2.1l0.3-33.4c0-1.1,1-2.1,2.1-2.1h0.6
					c1.1,0,2.1,0.9,2,2.1L-116,173.5z"/>
			</g>
			<g>
				<linearGradient id="SVGID_46_" gradientUnits="userSpaceOnUse" x1="-75.6967" y1="94.1135" x2="-78.7398" y2="295.9739">
					<stop  offset="0" style="stop-color:#F0E5E1"/>
					<stop  offset="0.3766" style="stop-color:#F4EBE8;stop-opacity:0.6234"/>
					<stop  offset="0.9315" style="stop-color:#FEFCFC;stop-opacity:6.851250e-02"/>
					<stop  offset="1" style="stop-color:#FFFFFF;stop-opacity:0"/>
				</linearGradient>
				<path fill="url(#SVGID_46_)" d="M-79,193.4c0,1.1,1,2.1,2.1,2.1h0.4c1.1,0,2.1-0.9,2.1-2.1l-0.3-33.4c0-1.1-1-2.1-2.1-2.1h-0.6
					c-1.1,0-2.1,0.9-2,2.1L-79,193.4z"/>
			</g>
			<g>
				<linearGradient id="SVGID_47_" gradientUnits="userSpaceOnUse" x1="-86.1556" y1="93.9231" x2="-89.1987" y2="295.7835">
					<stop  offset="0" style="stop-color:#F0E5E1"/>
					<stop  offset="0.3766" style="stop-color:#F4EBE8;stop-opacity:0.6234"/>
					<stop  offset="0.9315" style="stop-color:#FEFCFC;stop-opacity:6.851250e-02"/>
					<stop  offset="1" style="stop-color:#FFFFFF;stop-opacity:0"/>
				</linearGradient>
				<path fill="url(#SVGID_47_)" d="M-89.2,173.5c0,1.1,1,2.1,2.1,2.1h0.4c1.1,0,2.1-0.9,2.1-2.1l-0.3-33.4c0-1.1-1-2.1-2.1-2.1
					h-0.6c-1.1,0-2.1,0.9-2,2.1L-89.2,173.5z"/>
			</g>
			<linearGradient id="SVGID_48_" gradientUnits="userSpaceOnUse" x1="-101.0892" y1="93.5942" x2="-104.1374" y2="295.7881">
				<stop  offset="0" style="stop-color:#F0E5E1"/>
				<stop  offset="0.3766" style="stop-color:#F4EBE8;stop-opacity:0.6234"/>
				<stop  offset="0.9315" style="stop-color:#FEFCFC;stop-opacity:6.851250e-02"/>
				<stop  offset="1" style="stop-color:#FFFFFF;stop-opacity:0"/>
			</linearGradient>
			<path fill="url(#SVGID_48_)" d="M-125.2,229h45c3.9,0,7-3.1,7-7v-42.6c0-3.8-3.2-7-7-7h-45c-3.9,0-7,3.1-7,7V222
				C-132.2,225.8-129.1,229-125.2,229z"/>
		</g>
		<g>
			<g>
				<linearGradient id="SVGID_49_" gradientUnits="userSpaceOnUse" x1="-63.0941" y1="94.3032" x2="-66.1372" y2="296.1637">
					<stop  offset="0" style="stop-color:#F0E5E1"/>
					<stop  offset="0.3766" style="stop-color:#F4EBE8;stop-opacity:0.6234"/>
					<stop  offset="0.9315" style="stop-color:#FEFCFC;stop-opacity:6.851250e-02"/>
					<stop  offset="1" style="stop-color:#FFFFFF;stop-opacity:0"/>
				</linearGradient>
				<path fill="url(#SVGID_49_)" d="M-62.2,193.4c0,1.1-1,2.1-2.1,2.1h-0.4c-1.1,0-2.1-0.9-2.1-2.1l0.3-33.4c0-1.1,1-2.1,2.1-2.1
					h0.6c1.1,0,2.1,0.9,2,2.1L-62.2,193.4z"/>
			</g>
			<g>
				<linearGradient id="SVGID_50_" gradientUnits="userSpaceOnUse" x1="-53.2366" y1="94.4186" x2="-56.2797" y2="296.2791">
					<stop  offset="0" style="stop-color:#F0E5E1"/>
					<stop  offset="0.3766" style="stop-color:#F4EBE8;stop-opacity:0.6234"/>
					<stop  offset="0.9315" style="stop-color:#FEFCFC;stop-opacity:6.851250e-02"/>
					<stop  offset="1" style="stop-color:#FFFFFF;stop-opacity:0"/>
				</linearGradient>
				<path fill="url(#SVGID_50_)" d="M-52,173.5c0,1.1-1,2.1-2.1,2.1h-0.4c-1.1,0-2.1-0.9-2.1-2.1l0.3-33.4c0-1.1,1-2.1,2.1-2.1h0.6
					c1.1,0,2.1,0.9,2,2.1L-52,173.5z"/>
			</g>
			<g>
				<linearGradient id="SVGID_51_" gradientUnits="userSpaceOnUse" x1="-11.7001" y1="95.0767" x2="-14.7432" y2="296.9371">
					<stop  offset="0" style="stop-color:#F0E5E1"/>
					<stop  offset="0.3766" style="stop-color:#F4EBE8;stop-opacity:0.6234"/>
					<stop  offset="0.9315" style="stop-color:#FEFCFC;stop-opacity:6.851250e-02"/>
					<stop  offset="1" style="stop-color:#FFFFFF;stop-opacity:0"/>
				</linearGradient>
				<path fill="url(#SVGID_51_)" d="M-15,193.4c0,1.1,1,2.1,2.1,2.1h0.4c1.1,0,2.1-0.9,2.1-2.1l-0.3-33.4c0-1.1-1-2.1-2.1-2.1h-0.6
					c-1.1,0-2.1,0.9-2,2.1L-15,193.4z"/>
			</g>
			<g>
				<linearGradient id="SVGID_52_" gradientUnits="userSpaceOnUse" x1="-22.159" y1="94.8863" x2="-25.2021" y2="296.7467">
					<stop  offset="0" style="stop-color:#F0E5E1"/>
					<stop  offset="0.3766" style="stop-color:#F4EBE8;stop-opacity:0.6234"/>
					<stop  offset="0.9315" style="stop-color:#FEFCFC;stop-opacity:6.851250e-02"/>
					<stop  offset="1" style="stop-color:#FFFFFF;stop-opacity:0"/>
				</linearGradient>
				<path fill="url(#SVGID_52_)" d="M-25.2,173.5c0,1.1,1,2.1,2.1,2.1h0.4c1.1,0,2.1-0.9,2.1-2.1l-0.3-33.4c0-1.1-1-2.1-2.1-2.1
					h-0.6c-1.1,0-2.1,0.9-2,2.1L-25.2,173.5z"/>
			</g>
			<linearGradient id="SVGID_53_" gradientUnits="userSpaceOnUse" x1="-37.0926" y1="94.559" x2="-40.1408" y2="296.7529">
				<stop  offset="0" style="stop-color:#F0E5E1"/>
				<stop  offset="0.3766" style="stop-color:#F4EBE8;stop-opacity:0.6234"/>
				<stop  offset="0.9315" style="stop-color:#FEFCFC;stop-opacity:6.851250e-02"/>
				<stop  offset="1" style="stop-color:#FFFFFF;stop-opacity:0"/>
			</linearGradient>
			<path fill="url(#SVGID_53_)" d="M-61.2,229h45c3.9,0,7-3.1,7-7v-42.6c0-3.8-3.2-7-7-7h-45c-3.9,0-7,3.1-7,7V222
				C-68.2,225.8-65.1,229-61.2,229z"/>
		</g>
		<g>
			<g>
				<linearGradient id="SVGID_54_" gradientUnits="userSpaceOnUse" x1="-1.1291" y1="95.2358" x2="-4.1722" y2="297.0963">
					<stop  offset="0" style="stop-color:#F0E5E1"/>
					<stop  offset="0.3766" style="stop-color:#F4EBE8;stop-opacity:0.6234"/>
					<stop  offset="0.9315" style="stop-color:#FEFCFC;stop-opacity:6.851250e-02"/>
					<stop  offset="1" style="stop-color:#FFFFFF;stop-opacity:0"/>
				</linearGradient>
				<path fill="url(#SVGID_54_)" d="M-0.2,193.4c0,1.1-1,2.1-2.1,2.1h-0.4c-1.1,0-2.1-0.9-2.1-2.1l0.3-33.4c0-1.1,1-2.1,2.1-2.1h0.6
					c1.1,0,2.1,0.9,2,2.1L-0.2,193.4z"/>
			</g>
			<g>
				<linearGradient id="SVGID_55_" gradientUnits="userSpaceOnUse" x1="8.7284" y1="95.3512" x2="5.6853" y2="297.2117">
					<stop  offset="0" style="stop-color:#F0E5E1"/>
					<stop  offset="0.3766" style="stop-color:#F4EBE8;stop-opacity:0.6234"/>
					<stop  offset="0.9315" style="stop-color:#FEFCFC;stop-opacity:6.851250e-02"/>
					<stop  offset="1" style="stop-color:#FFFFFF;stop-opacity:0"/>
				</linearGradient>
				<path fill="url(#SVGID_55_)" d="M10,173.5c0,1.1-1,2.1-2.1,2.1H7.4c-1.1,0-2.1-0.9-2.1-2.1L5.7,140c0-1.1,1-2.1,2.1-2.1h0.6
					c1.1,0,2.1,0.9,2,2.1L10,173.5z"/>
			</g>
			<g>
				<linearGradient id="SVGID_56_" gradientUnits="userSpaceOnUse" x1="50.2649" y1="96.0093" x2="47.2218" y2="297.8697">
					<stop  offset="0" style="stop-color:#F0E5E1"/>
					<stop  offset="0.3766" style="stop-color:#F4EBE8;stop-opacity:0.6234"/>
					<stop  offset="0.9315" style="stop-color:#FEFCFC;stop-opacity:6.851250e-02"/>
					<stop  offset="1" style="stop-color:#FFFFFF;stop-opacity:0"/>
				</linearGradient>
				<path fill="url(#SVGID_56_)" d="M47,193.4c0,1.1,1,2.1,2.1,2.1h0.4c1.1,0,2.1-0.9,2.1-2.1L51.3,160c0-1.1-1-2.1-2.1-2.1h-0.6
					c-1.1,0-2.1,0.9-2,2.1L47,193.4z"/>
			</g>
			<g>
				<linearGradient id="SVGID_57_" gradientUnits="userSpaceOnUse" x1="39.806" y1="95.8189" x2="36.7629" y2="297.6794">
					<stop  offset="0" style="stop-color:#F0E5E1"/>
					<stop  offset="0.3766" style="stop-color:#F4EBE8;stop-opacity:0.6234"/>
					<stop  offset="0.9315" style="stop-color:#FEFCFC;stop-opacity:6.851250e-02"/>
					<stop  offset="1" style="stop-color:#FFFFFF;stop-opacity:0"/>
				</linearGradient>
				<path fill="url(#SVGID_57_)" d="M36.8,173.5c0,1.1,1,2.1,2.1,2.1h0.4c1.1,0,2.1-0.9,2.1-2.1L41.1,140c0-1.1-1-2.1-2.1-2.1h-0.6
					c-1.1,0-2.1,0.9-2,2.1L36.8,173.5z"/>
			</g>
			<linearGradient id="SVGID_58_" gradientUnits="userSpaceOnUse" x1="24.8723" y1="95.4931" x2="21.8242" y2="297.687">
				<stop  offset="0" style="stop-color:#F0E5E1"/>
				<stop  offset="0.3766" style="stop-color:#F4EBE8;stop-opacity:0.6234"/>
				<stop  offset="0.9315" style="stop-color:#FEFCFC;stop-opacity:6.851250e-02"/>
				<stop  offset="1" style="stop-color:#FFFFFF;stop-opacity:0"/>
			</linearGradient>
			<path fill="url(#SVGID_58_)" d="M0.8,229h45c3.9,0,7-3.1,7-7v-42.6c0-3.8-3.2-7-7-7h-45c-3.9,0-7,3.1-7,7V222
				C-6.2,225.8-3.1,229,0.8,229z"/>
		</g>
	</g>
	<path fill="#771213" d="M-316.7,121.3h45c3.9,0,7-3.1,7-7V71.7c0-3.8-3.2-7-7-7h-45c-3.9,0-7,3.1-7,7v42.6
		C-323.7,118.1-320.6,121.3-316.7,121.3z"/>
	<g>
		<g>
			<path fill="#771213" d="M-318.4,155.5c0,1.1-1,2.1-2.1,2.1h-0.4c-1.1,0-2.1-0.9-2.1-2.1l0.3-33.4c0-1.1,1-2.1,2.1-2.1h0.6
				c1.1,0,2.1,0.9,2,2.1L-318.4,155.5z"/>
		</g>
		<g>
			<path fill="#771213" d="M-308.2,136.7c0,1.1-1,2.1-2.1,2.1h-0.4c-1.1,0-2.1-0.9-2.1-2.1l0.3-33.4c0-1.1,1-2.1,2.1-2.1h0.6
				c1.1,0,2.1,0.9,2,2.1L-308.2,136.7z"/>
		</g>
		<g>
			<path fill="#771213" d="M-271.2,155.5c0,1.1,1,2.1,2.1,2.1h0.4c1.1,0,2.1-0.9,2.1-2.1l-0.3-33.4c0-1.1-1-2.1-2.1-2.1h-0.6
				c-1.1,0-2.1,0.9-2,2.1L-271.2,155.5z"/>
		</g>
		<g>
			<path fill="#771213" d="M-281.4,136.7c0,1.1,1,2.1,2.1,2.1h0.4c1.1,0,2.1-0.9,2.1-2.1l-0.3-33.4c0-1.1-1-2.1-2.1-2.1h-0.6
				c-1.1,0-2.1,0.9-2,2.1L-281.4,136.7z"/>
		</g>
	</g>
	<path fill="#771213" d="M-253.2,121.3h45c3.9,0,7-3.1,7-7V71.7c0-3.8-3.2-7-7-7h-45c-3.9,0-7,3.1-7,7v42.6
		C-260.2,118.1-257.1,121.3-253.2,121.3z"/>
	<g>
		<g>
			<path fill="#771213" d="M-254.9,155.5c0,1.1-1,2.1-2.1,2.1h-0.4c-1.1,0-2.1-0.9-2.1-2.1l0.3-33.4c0-1.1,1-2.1,2.1-2.1h0.6
				c1.1,0,2.1,0.9,2,2.1L-254.9,155.5z"/>
		</g>
		<g>
			<path fill="#771213" d="M-244.7,136.7c0,1.1-1,2.1-2.1,2.1h-0.4c-1.1,0-2.1-0.9-2.1-2.1l0.3-33.4c0-1.1,1-2.1,2.1-2.1h0.6
				c1.1,0,2.1,0.9,2,2.1L-244.7,136.7z"/>
		</g>
		<g>
			<path fill="#771213" d="M-207.7,155.5c0,1.1,1,2.1,2.1,2.1h0.4c1.1,0,2.1-0.9,2.1-2.1l-0.3-33.4c0-1.1-1-2.1-2.1-2.1h-0.6
				c-1.1,0-2.1,0.9-2,2.1L-207.7,155.5z"/>
		</g>
		<g>
			<path fill="#771213" d="M-217.9,136.7c0,1.1,1,2.1,2.1,2.1h0.4c1.1,0,2.1-0.9,2.1-2.1l-0.3-33.4c0-1.1-1-2.1-2.1-2.1h-0.6
				c-1.1,0-2.1,0.9-2,2.1L-217.9,136.7z"/>
		</g>
	</g>
	<path fill="#771213" d="M-189.7,121.3h45c3.9,0,7-3.1,7-7V71.7c0-3.8-3.2-7-7-7h-45c-3.9,0-7,3.1-7,7v42.6
		C-196.7,118.1-193.6,121.3-189.7,121.3z"/>
	<g>
		<g>
			<path fill="#771213" d="M-191.4,155.5c0,1.1-1,2.1-2.1,2.1h-0.4c-1.1,0-2.1-0.9-2.1-2.1l0.3-33.4c0-1.1,1-2.1,2.1-2.1h0.6
				c1.1,0,2.1,0.9,2,2.1L-191.4,155.5z"/>
		</g>
		<g>
			<path fill="#771213" d="M-181.2,136.7c0,1.1-1,2.1-2.1,2.1h-0.4c-1.1,0-2.1-0.9-2.1-2.1l0.3-33.4c0-1.1,1-2.1,2.1-2.1h0.6
				c1.1,0,2.1,0.9,2,2.1L-181.2,136.7z"/>
		</g>
		<g>
			<path fill="#771213" d="M-144.2,155.5c0,1.1,1,2.1,2.1,2.1h0.4c1.1,0,2.1-0.9,2.1-2.1l-0.3-33.4c0-1.1-1-2.1-2.1-2.1h-0.6
				c-1.1,0-2.1,0.9-2,2.1L-144.2,155.5z"/>
		</g>
		<g>
			<path fill="#771213" d="M-154.4,136.7c0,1.1,1,2.1,2.1,2.1h0.4c1.1,0,2.1-0.9,2.1-2.1l-0.3-33.4c0-1.1-1-2.1-2.1-2.1h-0.6
				c-1.1,0-2.1,0.9-2,2.1L-154.4,136.7z"/>
		</g>
	</g>
	<path fill="#771213" d="M-126.2,121.3h45c3.9,0,7-3.1,7-7V71.7c0-3.8-3.2-7-7-7h-45c-3.9,0-7,3.1-7,7v42.6
		C-133.2,118.1-130.1,121.3-126.2,121.3z"/>
	<g>
		<g>
			<path fill="#771213" d="M-127.9,155.5c0,1.1-1,2.1-2.1,2.1h-0.4c-1.1,0-2.1-0.9-2.1-2.1l0.3-33.4c0-1.1,1-2.1,2.1-2.1h0.6
				c1.1,0,2.1,0.9,2,2.1L-127.9,155.5z"/>
		</g>
		<g>
			<path fill="#771213" d="M-117.7,136.7c0,1.1-1,2.1-2.1,2.1h-0.4c-1.1,0-2.1-0.9-2.1-2.1l0.3-33.4c0-1.1,1-2.1,2.1-2.1h0.6
				c1.1,0,2.1,0.9,2,2.1L-117.7,136.7z"/>
		</g>
		<g>
			<path fill="#771213" d="M-80.7,155.5c0,1.1,1,2.1,2.1,2.1h0.4c1.1,0,2.1-0.9,2.1-2.1l-0.3-33.4c0-1.1-1-2.1-2.1-2.1h-0.6
				c-1.1,0-2.1,0.9-2,2.1L-80.7,155.5z"/>
		</g>
		<g>
			<path fill="#771213" d="M-90.9,136.7c0,1.1,1,2.1,2.1,2.1h0.4c1.1,0,2.1-0.9,2.1-2.1l-0.3-33.4c0-1.1-1-2.1-2.1-2.1h-0.6
				c-1.1,0-2.1,0.9-2,2.1L-90.9,136.7z"/>
		</g>
	</g>
	<path fill="#771213" d="M-62.7,121.3h45c3.9,0,7-3.1,7-7V71.7c0-3.8-3.2-7-7-7h-45c-3.9,0-7,3.1-7,7v42.6
		C-69.7,118.1-66.6,121.3-62.7,121.3z"/>
	<g>
		<g>
			<path fill="#771213" d="M-64.4,155.5c0,1.1-1,2.1-2.1,2.1h-0.4c-1.1,0-2.1-0.9-2.1-2.1l0.3-33.4c0-1.1,1-2.1,2.1-2.1h0.6
				c1.1,0,2.1,0.9,2,2.1L-64.4,155.5z"/>
		</g>
		<g>
			<path fill="#771213" d="M-54.2,136.7c0,1.1-1,2.1-2.1,2.1h-0.4c-1.1,0-2.1-0.9-2.1-2.1l0.3-33.4c0-1.1,1-2.1,2.1-2.1h0.6
				c1.1,0,2.1,0.9,2,2.1L-54.2,136.7z"/>
		</g>
		<g>
			<path fill="#771213" d="M-17.2,155.5c0,1.1,1,2.1,2.1,2.1h0.4c1.1,0,2.1-0.9,2.1-2.1l-0.3-33.4c0-1.1-1-2.1-2.1-2.1h-0.6
				c-1.1,0-2.1,0.9-2,2.1L-17.2,155.5z"/>
		</g>
		<g>
			<path fill="#771213" d="M-27.4,136.7c0,1.1,1,2.1,2.1,2.1h0.4c1.1,0,2.1-0.9,2.1-2.1l-0.3-33.4c0-1.1-1-2.1-2.1-2.1h-0.6
				c-1.1,0-2.1,0.9-2,2.1L-27.4,136.7z"/>
		</g>
	</g>
	<path fill="#771213" d="M0.8,121.3h45c3.9,0,7-3.1,7-7V71.7c0-3.8-3.2-7-7-7h-45c-3.9,0-7,3.1-7,7v42.6
		C-6.2,118.1-3.1,121.3,0.8,121.3z"/>
	<g>
		<g>
			<path fill="#771213" d="M-0.9,155.5c0,1.1-1,2.1-2.1,2.1h-0.4c-1.1,0-2.1-0.9-2.1-2.1l0.3-33.4c0-1.1,1-2.1,2.1-2.1h0.6
				c1.1,0,2.1,0.9,2,2.1L-0.9,155.5z"/>
		</g>
		<g>
			<path fill="#771213" d="M9.3,136.7c0,1.1-1,2.1-2.1,2.1H6.8c-1.1,0-2.1-0.9-2.1-2.1L5,103.3c0-1.1,1-2.1,2.1-2.1h0.6
				c1.1,0,2.1,0.9,2,2.1L9.3,136.7z"/>
		</g>
		<g>
			<path fill="#771213" d="M46.3,155.5c0,1.1,1,2.1,2.1,2.1h0.4c1.1,0,2.1-0.9,2.1-2.1l-0.3-33.4c0-1.1-1-2.1-2.1-2.1h-0.6
				c-1.1,0-2.1,0.9-2,2.1L46.3,155.5z"/>
		</g>
		<g>
			<path fill="#771213" d="M36.1,136.7c0,1.1,1,2.1,2.1,2.1h0.4c1.1,0,2.1-0.9,2.1-2.1l-0.3-33.4c0-1.1-1-2.1-2.1-2.1h-0.6
				c-1.1,0-2.1,0.9-2,2.1L36.1,136.7z"/>
		</g>
	</g>
</g>
<rect x="-302.8" y="-98.3" fill="#771213" width="65.3" height="4.5"/>
<polygon fill="#771213" points="-302.8,-93.2 -237.5,-93.2 -245.5,-68.9 -295.7,-68.9 "/>
<path fill="none" stroke="#771213" stroke-width="3.8609" stroke-miterlimit="10" d="M-249.3-97.7c0-10.2-5.3-18.4-11.9-18.4"/>
<ellipse fill="#771213" stroke="#771213" stroke-width="1.85" stroke-miterlimit="10" cx="-260.9" cy="-116.5" rx="4.7" ry="2.2"/>
<rect x="-296.4" y="-7.8" fill="#771213" width="52.1" height="3.9"/>
<polygon fill="#771213" points="-244.2,-7.8 -296.4,-7.8 -293.1,-14.9 -247.1,-14.5 "/>
<polygon fill="#771213" points="-288.6,-89.5 -251.3,-89.5 -251.1,-11.8 -288.8,-11.8 "/>
</svg>
